<svg width="248" height="248" viewBox="0 0 248 248" fill="none" xmlns="http://www.w3.org/2000/svg">
    <path fill-rule="evenodd" clip-rule="evenodd" d="M80.3738 0C75.9418 0 72.0385 2.91724 70.7833 7.16779L58.725 48H10C4.47715 48 0 52.4772 0 58V238C0 243.523 4.47716 248 10 248H238C243.523 248 248 243.523 248 238V58C248 52.4772 243.523 48 238 48H189.275L177.217 7.16779C175.961 2.91724 172.058 0 167.626 0H80.3738ZM124 219C163.212 219 195 187.212 195 148C195 108.788 163.212 77 124 77C84.7878 77 53 108.788 53 148C53 187.212 84.7878 219 124 219ZM124 199.12C95.7672 199.12 72.88 176.233 72.88 148C72.88 119.767 95.7672 96.88 124 96.88C152.233 96.88 175.12 119.767 175.12 148C175.12 176.233 152.233 199.12 124 199.12Z" fill="white"/>
</svg>