<svg width="263" height="263" viewBox="0 0 263 263" fill="none" xmlns="http://www.w3.org/2000/svg">
<path fill-rule="evenodd" clip-rule="evenodd" d="M129 71.5V30H233V233H129V190C129 181.716 122.284 175 114 175C105.716 175 99 181.716 99 190V238C99 252.991 111.829 263 124.894 263H237.106C250.171 263 263 252.991 263 238V25C263 10.0093 250.171 0 237.106 0H124.894C111.829 0 99 10.0092 99 25V71.5C99 79.7843 105.716 86.5 114 86.5C122.284 86.5 129 79.7843 129 71.5ZM77.1066 90.6066C82.9645 84.7487 82.9645 75.2513 77.1066 69.3934C71.2487 63.5355 61.7513 63.5355 55.8934 69.3934L4.39339 120.893C-1.46447 126.751 -1.46447 136.249 4.39339 142.107L55.8934 193.607C61.7513 199.464 71.2487 199.464 77.1066 193.607C82.9645 187.749 82.9645 178.251 77.1066 172.393L51.2132 146.5H181C189.284 146.5 196 139.784 196 131.5C196 123.216 189.284 116.5 181 116.5H51.2132L77.1066 90.6066Z" fill="white"/>
</svg>
